inDegrees=no
num_controls=7
num_derivatives=13
num_iterations=36
num_multipliers=7
num_parameters=0
num_slacks=7
num_states=26
objective=0.426613
objective_accelerations=0.058042
objective_balance=0.001169
objective_effort=0.015487
objective_height=0.345942
objective_ligament=0.005973
solver_duration=579.847889
status=Solve_Succeeded
success=true
DataType=double
version=3
OpenSimVersion=4.5
endheader
time	/jointset/ground_pelvis/pelvis_tilt/value	/jointset/ground_pelvis/pelvis_tx/value	/jointset/ground_pelvis/pelvis_ty/value	/jointset/hip_l/hip_flexion_l/value	/jointset/hip_l/hip_adduction_l/value	/jointset/hip_l/hip_rotation_l/value	/jointset/back/lumbar_extension/value	/jointset/patellofemoral_l/patellar_flexion_l/value	/jointset/knee_l/knee_flexion_l/value	/jointset/knee_l/knee_adduction_l/value	/jointset/knee_l/knee_rotation_l/value	/jointset/ankle_l/ankle_angle_l/value	/jointset/subtalar_l/subtalar_angle_l/value	/jointset/ground_pelvis/pelvis_tilt/speed	/jointset/ground_pelvis/pelvis_tx/speed	/jointset/ground_pelvis/pelvis_ty/speed	/jointset/hip_l/hip_flexion_l/speed	/jointset/hip_l/hip_adduction_l/speed	/jointset/hip_l/hip_rotation_l/speed	/jointset/back/lumbar_extension/speed	/jointset/patellofemoral_l/patellar_flexion_l/speed	/jointset/knee_l/knee_flexion_l/speed	/jointset/knee_l/knee_adduction_l/speed	/jointset/knee_l/knee_rotation_l/speed	/jointset/ankle_l/ankle_angle_l/speed	/jointset/subtalar_l/subtalar_angle_l/speed	/forceset/tau_hip_flexion_l	/forceset/tau_hip_adduction_l	/forceset/tau_hip_rotation_l	/forceset/tau_knee_flexion_l	/forceset/tau_ankle_angle_l	/forceset/tau_subtalar_angle_l	/forceset/tau_lumbar_extension	lambda_cid13_p0	lambda_cid13_p1	lambda_cid13_p2	lambda_cid13_p3	lambda_cid13_p4	lambda_cid13_p5	lambda_cid14_p0	/jointset/ground_pelvis/pelvis_tilt/accel	/jointset/ground_pelvis/pelvis_tx/accel	/jointset/ground_pelvis/pelvis_ty/accel	/jointset/hip_l/hip_flexion_l/accel	/jointset/hip_l/hip_adduction_l/accel	/jointset/hip_l/hip_rotation_l/accel	/jointset/back/lumbar_extension/accel	/jointset/patellofemoral_l/patellar_flexion_l/accel	/jointset/knee_l/knee_flexion_l/accel	/jointset/knee_l/knee_adduction_l/accel	/jointset/knee_l/knee_rotation_l/accel	/jointset/ankle_l/ankle_angle_l/accel	/jointset/subtalar_l/subtalar_angle_l/accel	gamma_cid13_p0	gamma_cid13_p1	gamma_cid13_p2	gamma_cid13_p3	gamma_cid13_p4	gamma_cid13_p5	gamma_cid14_p0
0.5	-0.2109747089134221	0.0343109575721692	0.7709502487848725	0.9864531805186332	-0.3627067107605148	-0.002833670145846288	-0.4023129524899535	0.9691118736357783	0.9691118736357957	-0.02864011665200743	-0.1743188737471093	0.3232045621455409	0.1686494127536842	-0.7340416833318463	-0.1681133278713264	-0.528525353917436	2.380295356167619	0.03588996137960618	0.534256767965432	-0.307758923199948	2.013863221428261	2.013863221428233	0.3138683452490685	-0.0003311165791932256	0.5341317133718064	0.2780642051125452	-0.1043791094769884	0.08259323282081825	-0.002672371023007243	-0.1975931963743448	0.007340385381729339	-0.01918400015081233	0.117237642161022	-25.29532240670714	17.81383175314472	-8.89298381115216	1.984387163361779	-440.6399748980085	-22.20281898183484	-4.547472184564943	0.3475090554945321	0.3647435399702991	-0.453509334546551	-1.223475909989377	0.1257923320609312	-0.7395377542855547	1.498259539271985	-1.699308072275543	-1.699308072275532	-0.1943197378795041	0.06113686857269134	-0.9813510698454728	0.08296738087839589	-4.898443895228359e-07	8.508564679928703e-08	6.916789498634496e-06	4.168198555283574e-07	-1.3495185083613e-06	-9.957542491456492e-07	-8.306862571275885e-07
0.51	-0.2182957171395952	0.0326483507383808	0.7656436751339105	1.010189992242739	-0.3623443121605416	0.002478667667791077	-0.4053165701241148	0.9891618006169189	0.9891618006169345	-0.02552192562890878	-0.1743189155435555	0.3284950493348912	0.1714293204931159	-0.7300598651948478	-0.164387637298146	-0.5326640887339753	2.366741540391795	0.03657522389358429	0.5281702688415001	-0.2929450095854215	1.995827646614758	1.995827646614759	0.309726232900477	0.0002822728866861597	0.52387991390209	0.2778430775271167	-0.108941040380869	0.08367334039154799	-0.00315921149689408	-0.2003484423288292	0.006133173865965258	-0.01865279898846585	0.1207454450815419	-25.90096157482208	17.902403985357	-9.150666349625457	2.104552456718935	-444.0603448286511	-22.18480558997033	-3.940842802447021	0.4385063090439353	0.3796306190662765	-0.3755262054870424	-1.470206143379011	0.03663491926902637	-0.5500723795929229	1.47589637969783	-1.899698137693696	-1.899698137689464	-0.5306066326482229	0.05668611396765805	-1.059966602676902	-0.08666324518136805	-4.666439023131601e-07	4.557833081176746e-07	6.841351431481597e-06	4.578186186394535e-07	-1.281249996773668e-06	-5.727123985992377e-07	-8.029858382127824e-07
0.52	-0.2255739095611479	0.03102363057093874	0.7602994200047282	1.033781491462694	-0.3619757125937768	0.007728767212522233	-0.4081714608006967	1.009022568659568	1.009022568659572	-0.02244644565913901	-0.174313774219616	0.3336804440861315	0.1742046148733075	-0.725478522408176	-0.1605359946020604	-0.5360616495615321	2.351232855335983	0.03713015473571604	0.5218091141917304	-0.2780135316846846	1.976031433729013	1.976031433729042	0.305326134579906	0.0007055074874515006	0.5131132257466775	0.2771415332645661	-0.113502971284712	0.08475344796206159	-0.003646051970723064	-0.2031036882833351	0.00492596235013497	-0.01812159782645262	0.1242532480021264	-26.50179882786428	17.98091347749343	-9.39620709800243	2.182976497283366	-447.4004365700101	-22.28280374983274	-3.383986968205202	0.4674139854294851	0.3899339645510678	-0.3052745367501373	-1.614449765986946	0.09972599769171772	-0.7944688594531552	1.521772396514085	-2.051435686723911	-2.051435686723919	-0.2459169322752542	0.02310589554981096	-1.084328806985051	-0.01311595454610085	-4.414653386997536e-07	7.672776584376919e-07	6.719788023095204e-06	4.881054909278516e-07	-1.205168306359678e-06	-1.680613347792339e-07	-7.759274453790967e-07
0.53	-0.2328034846630087	0.02943804816274433	0.7549249007126566	1.057208536870701	-0.3616018247003674	0.01291383515027494	-0.4108763090769173	1.0286770276145	1.028677027614473	-0.01941552438946232	-0.1743051551704197	0.3387559735567066	0.1769710868911676	-0.7203383548227532	-0.1565597535018519	-0.5387139658374966	2.33385621940977	0.03764266871105049	0.5151105483037453	-0.262941105802776	1.954589838201371	1.954589838201402	0.3008823923812604	0.0009629890308391508	0.5019327195762919	0.2761000982085136	-0.1180053529466513	0.08554736116088846	-0.003980953036390186	-0.2061957413475189	0.004016326361752432	-0.01772668058349914	0.1277046704355685	-27.03042085894618	18.12507113873431	-9.674039697831663	2.217490383833461	-450.886378069458	-22.34834929722966	-2.875700877723764	0.5520190050935784	0.4046800149458848	-0.2262067620731907	-1.847318455822373	0.02523035917662032	-0.6223466509345397	1.502230347635794	-2.230947001090303	-2.230947001090001	-0.5398289155096224	0.02007694581762728	-1.143878639231905	-0.1585143247482085	-4.151534710233123e-07	1.05372382990316e-06	6.568649123091714e-06	5.137499116506475e-07	-1.130104296609708e-06	2.085088762550029e-07	-7.457952520277043e-07
